<?xml version="1.0" encoding="utf-8"?>
<!-- Generator: Adobe Illustrator 22.1.0, SVG Export Plug-In . SVG Version: 6.00 Build 0)  -->
<svg version="1.1" id="Layer_1" xmlns="http://www.w3.org/2000/svg" xmlns:xlink="http://www.w3.org/1999/xlink" x="0px" y="0px"
	 viewBox="0 0 479 251" style="enable-background:new 0 0 479 251;" xml:space="preserve">
<style type="text/css">
	.st0{fill:#FFFFFF;}
</style>
<g>
	<polygon class="st0" points="276,184 232.4,131.6 215.6,131.6 215.6,236.1 232.4,236.1 232.4,155.3 276,207.1 276,236.1 
		292.8,236.1 292.8,131.6 276,131.6 	"/>
	<path class="st0" d="M436.1,176.6c-11.9-5.2-26.2-10-26.2-18.4c0-5.7,4.5-10.3,10.1-10.3h20.9c5.5,0,10.1,4.6,10.1,10.1v2.2h16.3
		V158c0-14.5-11.8-26.4-26.4-26.4H420c-14.5,0-26.4,11.9-26.4,26.5c0,18.7,21.5,26.7,36.9,33.4c11.9,5.2,22.1,9.7,22.1,18
		c0,5.8-4.4,10.3-10.1,10.3h-22.3c-5.6,0-10.1-4.5-10.1-10.1v-2.2h-16.4v2.2c0,14.5,11.9,26.4,26.5,26.4h22.3
		c14.6,0,26.5-11.9,26.5-26.5C469,190.9,451.5,183.3,436.1,176.6"/>
	<path class="st0" d="M167.9,131.6h-14.5c-11.6,0-18.5,2.2-24,7.5c-5.3,5.2-7.4,11.9-7.4,23.8v41.8c0,11.9,2,18.6,7.4,23.8
		c5.5,5.3,12.4,7.5,24,7.5h14.5c11.6,0,18.5-2.2,23.9-7.5c5.3-5.2,7.4-11.9,7.4-23.8V163c0-11.9-2-18.6-7.4-23.8
		C186.4,133.8,179.5,131.6,167.9,131.6 M182.4,201.7c0,9.7-0.6,13-3.1,15.7c-2.5,2.5-5.5,3.1-15.7,3.1h-6.1
		c-10.2,0-13.2-0.6-15.7-3.1c-2.5-2.7-3.2-6-3.2-15.7v-35.6c0-9.7,0.6-13,3.2-15.7c2.5-2.5,5.5-3.1,15.7-3.1h6.1
		c10.2,0,13.2,0.6,15.7,3.1c2.5,2.7,3.1,6,3.1,15.7V201.7z"/>
	<polygon class="st0" points="191.8,100.3 138.7,100.3 138.7,71.6 177.5,71.6 177.5,56 138.7,56 138.7,27.2 191.8,27.2 191.8,11.5 
		122,11.5 122,116 191.8,116 	"/>
	<polygon class="st0" points="361.9,100.4 338.3,100.4 338.3,27.1 361.9,27.1 361.9,11.5 296.9,11.5 296.9,27.1 321.3,27.1 
		321.3,100.4 296.9,100.4 296.9,116 361.9,116 	"/>
	<path class="st0" d="M390.8,86.5h45.1V116h16.6V65.9c0-2.6-0.7-5.1-1.7-7.4c0,0-19.7-42.6-19.7-42.6c-1.2-2.6-3.8-4.4-6.8-4.4h-22
		c-3.1,0-5.7,1.9-6.9,4.6l-19.6,42.4c-1,2.2-1.6,4.8-1.6,7.4V116h16.4L390.8,86.5z M390.8,65l17.9-37.9h9.3L435.9,65v6.6h-45.1V65z"
		/>
	<path class="st0" d="M277.2,108.5c5.3-5.2,7.3-11.9,7.3-23.8V42.8c0-11.9-2-18.6-7.3-23.8c-5.5-5.3-12.4-7.5-24-7.5h-45.1V116h45.1
		C264.9,116,271.7,113.8,277.2,108.5 M225,100.3V27.2H249c10.2,0,13.2,0.6,15.7,3.1c2.5,2.7,3.1,5.9,3.1,15.6v35.6
		c0,9.7-0.6,13-3.1,15.7c-2.5,2.5-5.5,3.1-15.7,3.1H225z"/>
	<polygon class="st0" points="387.9,131.6 366,131.6 326.8,181.7 326.8,186.1 366,236.1 387.9,236.1 346.5,183.9 	"/>
	<rect x="310.1" y="131.6" class="st0" width="16.8" height="104.5"/>
	<polygon class="st0" points="58.4,50.3 27.9,11.5 11.1,11.5 11.1,116 27.9,116 27.9,38 54.4,71.6 62.3,71.6 88.8,38 88.8,116 
		105.6,116 105.6,11.5 88.8,11.5 	"/>
	<polygon class="st0" points="58.4,170.5 27.9,131.6 11.1,131.6 11.1,236.1 27.9,236.1 27.9,158.1 54.4,191.8 62.3,191.8 
		88.8,158.1 88.8,236.1 105.6,236.1 105.6,131.6 88.8,131.6 	"/>
</g>
</svg>
